<svg viewBox="0 0 1200 1200" xmlns="http://www.w3.org/2000/svg" xmlns:xlink="http://www.w3.org/1999/xlink" id="Layer_1" overflow="hidden"><path d="M853.3 701.2 853.3 498.7C873.2 495.5 888.4 478.3 888.4 457.5 888.4 436.7 869.7 415.8 846.7 415.8 823.7 415.8 822.1 421.8 814.4 431.2L639 330C640.7 325.4 641.7 320.4 641.7 315.2 641.7 292.2 623 273.5 600 273.5 577 273.5 558.3 292.2 558.3 315.2 558.3 338.2 559.3 325.4 561 330L385.6 431.2C378 421.8 366.3 415.8 353.3 415.8 330.3 415.8 311.6 434.5 311.6 457.5 311.6 480.5 326.8 495.4 346.7 498.7L346.7 701.2C326.8 704.4 311.6 721.6 311.6 742.4 311.6 763.2 330.3 784.1 353.3 784.1 376.3 784.1 377.9 778.1 385.6 768.7L561 869.9C559.3 874.5 558.3 879.5 558.3 884.7 558.3 907.7 577 926.4 600 926.4 623 926.4 641.7 907.7 641.7 884.7 641.7 861.7 640.7 874.5 639 869.9L814.4 768.7C822 778.1 833.7 784.1 846.7 784.1 869.7 784.1 888.4 765.4 888.4 742.4 888.4 719.4 873.2 704.4 853.3 701.2L853.3 701.2ZM814.4 716.1 735.4 670.5C746.4 649.4 752.7 625.4 752.7 600 752.7 574.6 746.4 550.6 735.4 529.5L814.4 483.9C820.7 491.6 829.8 497 840 498.7L840 701.2C829.7 702.9 820.6 708.3 814.4 716L814.4 716ZM360 701.2 360 498.7C370.3 497 379.3 491.6 385.6 483.9L464.6 529.5C453.6 550.6 447.3 574.6 447.3 600 447.3 625.4 453.6 649.4 464.6 670.5L385.6 716.1C379.3 708.4 370.3 703 360 701.3L360 701.3ZM739.2 593.4 683.3 593.4C682.7 567.7 678.7 543.2 671.6 521.6 683.5 518.5 695.1 514.6 706.1 509.9 725.4 532.6 737.6 561.6 739.1 593.4L739.1 593.4ZM606.7 461.9C622.2 464.9 636.8 478.2 648.4 500.3 650.4 504 652.2 507.9 653.9 511.9 638.6 514.9 622.8 516.7 606.7 517.1L606.7 461.9ZM593.4 461.9 593.4 517.1C577.3 516.7 561.4 515 546.2 511.9 547.9 507.9 549.7 504 551.7 500.3 563.3 478.2 577.9 464.9 593.4 461.9L593.4 461.9ZM593.4 530.5 593.4 593.4 530.1 593.4C530.7 568.6 534.6 545.1 541.5 524.6 558.2 528.1 575.6 530.1 593.4 530.5L593.4 530.5ZM593.4 606.6 593.4 669.5C575.6 669.9 558.2 671.9 541.4 675.4 534.5 654.9 530.6 631.4 530 606.6L593.4 606.6ZM593.4 682.8 593.4 738C577.9 735 563.3 721.7 551.7 699.6 549.7 695.9 547.9 692 546.2 688 561.5 685 577.3 683.2 593.4 682.8L593.4 682.8ZM606.7 738.1 606.7 682.9C622.8 683.3 638.7 685 653.9 688.1 652.2 692.1 650.4 696 648.4 699.7 636.8 721.8 622.2 735.1 606.7 738.1L606.7 738.1ZM606.7 669.5 606.7 606.6 670 606.6C669.4 631.4 665.5 654.9 658.6 675.4 641.9 671.9 624.5 669.9 606.7 669.5L606.7 669.5ZM606.7 593.4 606.7 530.5C624.5 530.1 641.9 528.1 658.7 524.6 665.6 545.1 669.5 568.6 670.1 593.4L606.7 593.4ZM667.1 508.9C665 503.8 662.7 498.8 660.2 494 654.4 483 647.7 473.8 640.5 466.6 661.7 473 680.7 484.4 696.4 499.4 687 503.2 677.2 506.3 667.1 508.9L667.1 508.9ZM539.9 494.1C537.4 498.8 535.1 503.8 533 509 522.9 506.4 513 503.2 503.7 499.5 519.3 484.5 538.4 473.2 559.6 466.7 552.3 473.9 545.8 483.1 539.9 494.2L539.9 494.2ZM493.8 509.7C504.8 514.4 516.3 518.3 528.3 521.4 521.3 543 517.2 567.5 516.6 593.2L460.7 593.2C462.2 561.5 474.4 532.4 493.7 509.7L493.7 509.7ZM460.8 606.6 516.7 606.6C517.3 632.3 521.3 656.8 528.4 678.4 516.5 681.5 504.9 685.4 493.9 690.1 474.6 667.4 462.4 638.4 460.9 606.6L460.9 606.6ZM533 691.1C535.1 696.2 537.4 701.2 539.9 706 545.7 717 552.4 726.2 559.6 733.4 538.4 727 519.4 715.6 503.7 700.6 513.1 696.8 522.9 693.7 533 691.1L533 691.1ZM660.2 705.9C662.7 701.2 665 696.2 667.1 691 677.2 693.6 687.1 696.8 696.4 700.5 680.8 715.5 661.7 726.8 640.5 733.3 647.8 726.1 654.3 716.9 660.2 705.8L660.2 705.8ZM706.2 690.2C695.2 685.5 683.7 681.6 671.7 678.5 678.7 656.9 682.8 632.4 683.4 606.7L739.3 606.7C737.8 638.4 725.6 667.5 706.3 690.2L706.3 690.2ZM846.7 429.2C862.3 429.2 875 441.9 875 457.5 875 473.1 862.3 485.8 846.7 485.8 831.1 485.8 818.4 473.1 818.4 457.5 818.4 441.9 831.1 429.2 846.7 429.2ZM807.7 442.8C806 447.4 805 452.4 805 457.6 805 462.8 806 467.8 807.7 472.4L728.7 518C702.7 477.3 657.9 449.7 606.7 447.5L606.7 356.3C616.9 354.6 626 349.2 632.3 341.5L807.7 442.7ZM600 286.8C615.6 286.8 628.3 299.5 628.3 315.1 628.3 330.7 615.6 343.4 600 343.4 584.4 343.4 571.7 330.7 571.7 315.1 571.7 299.5 584.4 286.8 600 286.8ZM567.8 341.5C574.1 349.2 583.2 354.6 593.4 356.3L593.4 447.4C542.2 449.6 497.3 477.2 471.4 517.9L392.4 472.3C394.1 467.7 395.1 462.7 395.1 457.5 395.1 452.3 394.1 447.3 392.4 442.7L567.8 341.5ZM325 457.6C325 442 337.7 429.3 353.3 429.3 368.9 429.3 381.6 442 381.6 457.6 381.6 473.2 368.9 485.9 353.3 485.9 337.7 485.9 325 473.2 325 457.6ZM353.4 770.8C337.8 770.8 325.1 758.1 325.1 742.5 325.1 726.9 337.8 714.2 353.4 714.2 369 714.2 381.7 726.9 381.7 742.5 381.7 758.1 369 770.8 353.4 770.8ZM392.4 757.2C394.1 752.6 395.1 747.6 395.1 742.4 395.1 737.2 394.1 732.2 392.4 727.6L471.4 682C497.4 722.7 542.2 750.3 593.4 752.5L593.4 843.6C583.1 845.3 574.1 850.7 567.8 858.4L392.4 757.2ZM600 913.2C584.4 913.2 571.7 900.5 571.7 884.9 571.7 869.3 584.4 856.6 600 856.6 615.6 856.6 628.3 869.3 628.3 884.9 628.3 900.5 615.6 913.2 600 913.2ZM632.3 858.4C626 850.7 616.9 845.3 606.7 843.6L606.7 752.6C657.9 750.4 702.8 722.8 728.7 682.1L807.7 727.7C806 732.3 805 737.3 805 742.5 805 747.7 806 752.7 807.7 757.3L632.3 858.4ZM846.7 770.8C831.1 770.8 818.4 758.1 818.4 742.5 818.4 726.9 831.1 714.2 846.7 714.2 862.3 714.2 875 726.9 875 742.5 875 758.1 862.3 770.8 846.7 770.8Z" fill="#FFFFFF"/></svg>